<svg xmlns="http://www.w3.org/2000/svg" x="0px" y="0px"
width="50" height="50"
viewBox="0 0 226 226"
style=" fill:#000000;"><g fill="none" fill-rule="nonzero" stroke="none" stroke-width="1" stroke-linecap="butt" stroke-linejoin="miter" stroke-miterlimit="10" stroke-dasharray="" stroke-dashoffset="0" font-family="none" font-weight="none" font-size="none" text-anchor="none" style="mix-blend-mode: normal"><path d="M0,226v-226h226v226z" fill="none"></path><g><path d="M169.5,187.58h-113c-2.8928,0 -5.0398,-2.6668 -4.4296,-5.4918l0.0226,-0.0226c2.0566,-9.266 8.5654,-16.9274 17.402,-20.4304l20.001,-7.5936c4.972,2.5764 13.8312,4.1584 23.504,4.1584c9.6502,0 18.5094,-1.582 23.4814,-4.1584l20.001,7.5936c8.8366,3.503 15.368,11.1644 17.4246,20.453c0.6328,2.825 -1.5142,5.4918 -4.407,5.4918z" fill="#f8f8ff"></path><path d="M136.4814,154.0416c-4.972,2.5764 -13.8312,4.1584 -23.4814,4.1584c-9.6728,0 -18.532,-1.582 -23.504,-4.1584l4.407,-1.6724c1.1526,-0.2938 1.017,-3.2092 1.017,-3.2092c0,-2.26 0,-9.04 0,-9.04h36.16v9.04c0,0 -0.113,2.9154 0.8588,3.164z" fill="#f8f8ff"></path><path d="M146.9,126.56c1.59782,-2.39786 2.26,-6.78 2.26,-11.3v-2.26c1.72664,-0.78874 3.37418,-2.52216 4.08834,-4.70758c0.48364,-1.50968 4.34598,-11.9441 4.34598,-11.9441c1.243,-3.7403 0.34578,-6.06132 -0.6441,-7.34726c-0.37064,-0.49494 -3.27022,-3.12106 -3.27022,-3.12106v-13.56c0,-22.8938 -17.93536,-40.68 -40.68,-40.68c-22.74464,0 -40.68,17.7862 -40.68,40.68v13.56c0,0 -2.88602,2.33684 -3.2544,2.80918c-0.98988,1.28368 -1.88936,3.6273 -0.69156,7.21166c0,0 3.34254,10.20616 4.0567,12.39158c0.78422,2.45662 2.35718,4.03184 4.40926,4.70758v2.26c0,4.52 0.66218,8.90214 2.26,11.3c9.04,13.56 26.86914,20.34 33.9,20.34c7.03086,0 24.86,-6.78 33.9,-20.34z" fill="#f8f8ff"></path><path d="M176.11728,181.591c-2.22836,-10.02762 -9.25696,-18.2721 -18.83258,-22.07342l-23.8882,-9.05356c-0.04746,-0.35708 -0.07232,-0.85428 -0.0565,-1.30402v-7.10318c5.76752,-3.47588 11.42204,-8.2151 15.44032,-14.24252c2.1809,-3.27474 2.63968,-8.63546 2.63968,-12.5543v-0.95372c1.81026,-1.24074 3.277,-3.17304 3.98212,-5.32456c0.3842,-1.20006 3.2431,-8.9609 4.33468,-11.91924c1.56392,-4.7008 0.32092,-7.7292 -0.97858,-9.4129c-0.28928,-0.39098 -1.23622,-1.31758 -2.81822,-2.76624v-12.56334c0,-24.07804 -18.86196,-42.94 -42.94,-42.94c-24.07804,0 -42.94,18.86196 -42.94,42.94v12.4865c-2.3278,1.91422 -2.66002,2.34362 -2.78432,2.50182c-1.08254,1.40346 -2.65776,4.47706 -1.04864,9.29312l4.04992,12.37576c0.78422,2.46114 2.28486,4.35954 4.30304,5.48728v0.79552c0,3.91884 0.45878,9.27956 2.63968,12.5543c4.01828,6.02742 9.6728,10.76664 15.44032,14.24252l0.00226,7.2094c0.01582,0.339 -0.01356,0.83846 -0.07006,1.18876l-23.92888,9.07164c-9.5372,3.79228 -16.56128,12.03676 -18.78738,22.06438c-0.44974,2.01818 0.03616,4.09738 1.32888,5.71102c1.29272,1.61364 3.2205,2.53798 5.2884,2.53798h113.00678c2.0679,0 3.99568,-0.92434 5.2884,-2.53798c1.29272,-1.61138 1.77636,-3.6951 1.32888,-5.71102zM80.98032,125.3057c-1.17746,-1.76506 -1.88032,-5.52118 -1.88032,-10.0457v-2.26c0,-0.97632 -0.62602,-1.83964 -1.55488,-2.147c-1.42832,-0.47008 -2.42498,-1.56166 -2.96738,-3.25892l-4.06122,-12.40966c-0.9492,-2.83856 -0.19662,-4.42056 0.27346,-5.03528c0.27798,-0.29832 1.74924,-1.53906 2.95156,-2.51086c0.5311,-0.43166 0.83846,-1.07576 0.83846,-1.75828v-13.56c0,-21.54232 16.87542,-38.42 38.42,-38.42c21.54458,0 38.42,16.87768 38.42,38.42v13.56c0,0.63732 0.26894,1.24752 0.74354,1.67466c1.23396,1.1187 2.73912,2.52442 2.99676,2.825c0.93112,1.20684 1.03056,3.02614 0.31414,5.18444c-0.1582,0.42488 -3.88494,10.4977 -4.3731,12.0232c-0.47686,1.45996 -1.60686,2.77754 -2.87924,3.35384c-0.80456,0.37064 -1.3221,1.17294 -1.3221,2.05886v2.26c0,4.52452 -0.70286,8.28064 -1.88032,10.0457c-8.4637,12.69442 -25.34364,19.3343 -32.01968,19.3343c-6.67604,0 -23.55598,-6.63988 -32.01968,-19.3343zM171.2628,184.47476c-0.43166,0.53562 -1.0735,0.84524 -1.7628,0.84524h-113.00678c-0.6893,0 -1.33114,-0.30962 -1.7628,-0.84524c-0.4294,-0.53788 -0.59212,-1.2317 -0.4407,-1.91422c1.90066,-8.5541 7.8987,-15.594 16.00984,-18.82128l19.1083,-7.2433c5.4127,2.46566 14.15664,3.96404 23.59214,3.96404c1.93456,0 3.86234,-0.06102 5.7291,-0.18306c0.6215,-0.04068 1.09384,-0.57856 1.05316,-1.20006c-0.04068,-0.6215 -0.55596,-1.10062 -1.20232,-1.05542c-1.81478,0.11978 -3.6951,0.17854 -5.57994,0.17854c-7.95068,0 -15.32506,-1.07802 -20.46882,-2.88828l2.09502,-0.79326c2.49504,-0.76614 2.61708,-4.06122 2.5538,-5.35846v-4.64204c6.27828,3.07812 12.22434,4.64204 15.82,4.64204c3.59792,0 9.54172,-1.56392 15.82,-4.6443v4.5539c-0.08362,2.11536 0.26894,4.74148 2.38882,5.4014l2.2374,0.8475c-1.14582,0.40002 -2.39108,0.77518 -3.75386,1.10288c-0.60568,0.14464 -0.98084,0.7571 -0.83394,1.36504c0.1243,0.51754 0.5876,0.86558 1.09836,0.86558c0.08814,0 0.17628,-0.0113 0.26668,-0.03164c2.47018,-0.59438 4.59232,-1.30402 6.3619,-2.1131l19.06536,7.22522c6.82294,2.70748 12.1023,8.10436 14.77136,14.80752h-90.19208c-0.62376,0 -1.13,0.50624 -1.13,1.13c0,0.62376 0.50624,1.13 1.13,1.13h90.96726c0.17402,0.5876 0.37516,1.16616 0.5085,1.76958c0.14916,0.67348 -0.0113,1.3673 -0.44296,1.90518z" fill="#000000"></path><path d="M123.18808,159.85206c0.0452,0 0.09266,-0.00226 0.14012,-0.00904c0.76614,-0.09266 1.51872,-0.19888 2.25322,-0.31414c0.61472,-0.09718 1.03734,-0.67348 0.94242,-1.29046c-0.09492,-0.61246 -0.65992,-1.03282 -1.29046,-0.94242c-0.70964,0.11074 -1.43736,0.2147 -2.1809,0.3051c-0.61924,0.07458 -1.05994,0.63958 -0.9831,1.25882c0.0678,0.57404 0.55596,0.99214 1.1187,0.99214zM73.45,178.54h-4.52c-0.62376,0 -1.13,0.50624 -1.13,1.13c0,0.62376 0.50624,1.13 1.13,1.13h4.52c0.62376,0 1.13,-0.50624 1.13,-1.13c0,-0.62376 -0.50624,-1.13 -1.13,-1.13zM64.41,178.54h-2.26c-0.62376,0 -1.13,0.50624 -1.13,1.13c0,0.62376 0.50624,1.13 1.13,1.13h2.26c0.62376,0 1.13,-0.50624 1.13,-1.13c0,-0.62376 -0.50624,-1.13 -1.13,-1.13z" fill="#000000"></path></g></g></svg>