<?xml version="1.0" standalone="no"?>
<!DOCTYPE svg PUBLIC "-//W3C//DTD SVG 20010904//EN"
 "http://www.w3.org/TR/2001/REC-SVG-20010904/DTD/svg10.dtd">
<svg version="1.0" xmlns="http://www.w3.org/2000/svg"
 width="350.000000pt" height="450.000000pt" viewBox="0 0 860.000000 939.000000"
 preserveAspectRatio="xMidYMid meet">
<g transform="translate(0.000000,939.000000) scale(0.100000,-0.100000)"
fill="#A8E4A0" fill-opacity='0.9' stroke="#A8E4A0" stroke-width="5" stroke-opacity='0.9'  >
<path d="M3613 8959 c-197 -25 -306 -84 -362 -196 -29 -58 -45 -132 -81 -383
-54 -377 -89 -535 -195 -885 -63 -210 -99 -370 -130 -585 -9 -63 -21 -122 -25
-131 -12 -22 -43 -267 -36 -284 3 -10 -8 -22 -34 -35 -158 -81 -482 -77 -908
11 -58 11 -205 60 -362 118 -419 157 -585 195 -840 196 -172 0 -176 0 -233
-28 -71 -36 -92 -69 -84 -139 20 -164 252 -362 567 -483 188 -72 407 -109 710
-120 293 -9 521 -25 825 -55 419 -42 414 -42 424 -54 22 -27 50 -151 60 -271
10 -120 26 -201 49 -242 7 -12 1 -27 -24 -60 -19 -25 -37 -56 -40 -70 -15 -60
44 -224 110 -302 20 -24 44 -60 52 -80 32 -73 74 -200 74 -220 0 -33 83 -320
113 -391 6 -14 11 -77 12 -140 1 -102 6 -132 43 -263 24 -81 53 -218 67 -305
32 -206 54 -275 113 -352 93 -123 122 -174 197 -353 43 -100 95 -222 117 -272
22 -49 51 -129 64 -178 28 -104 52 -152 93 -191 51 -49 101 -217 101 -341 0
-30 5 -66 10 -81 6 -14 71 -88 145 -164 l135 -136 0 -175 c0 -189 8 -240 59
-379 26 -72 31 -99 31 -178 0 -58 4 -91 10 -87 5 3 19 36 31 73 17 55 21 92
21 202 0 74 -5 181 -11 238 -16 134 -9 157 66 208 81 56 156 152 218 279 53
108 75 183 108 371 13 73 21 89 73 160 33 44 79 113 103 154 24 41 67 111 94
155 86 136 105 176 136 290 37 133 102 271 163 346 101 124 122 179 158 419
11 74 39 203 62 285 37 132 42 164 44 265 2 108 5 123 48 251 25 75 46 144 46
153 0 9 9 43 21 76 11 33 18 64 15 69 -8 13 71 220 99 261 14 19 39 53 55 74
35 45 80 179 80 236 0 29 -9 50 -36 85 l-35 47 20 61 c25 77 51 230 44 257 -7
27 5 104 20 123 14 19 94 32 1132 192 380 58 719 113 755 121 93 21 163 56
193 96 32 42 89 165 107 230 25 95 3 115 -202 182 -305 100 -606 129 -847 79
-166 -33 -355 -134 -526 -279 l-67 -57 -96 7 c-118 8 -260 36 -328 65 l-50 22
-13 127 c-7 70 -19 145 -26 167 -7 22 -21 94 -30 160 -9 66 -30 183 -46 260
-16 77 -47 264 -69 415 -96 655 -173 1036 -229 1126 -10 17 -35 38 -55 48 -43
20 -69 14 -145 -32 -112 -69 -213 -100 -356 -108 -130 -8 -245 16 -477 97
-508 178 -604 207 -761 228 -89 12 -242 12 -334 0z m373 -24 c132 -23 282 -68
541 -161 476 -171 604 -192 824 -134 40 10 75 18 76 16 9 -9 -121 -56 -182
-67 -82 -14 -251 -6 -343 16 -34 8 -151 50 -260 94 -199 79 -436 160 -592 203
-72 19 -109 23 -240 23 -147 0 -270 -16 -270 -34 0 -5 20 -11 44 -13 42 -5
131 -42 171 -72 11 -9 26 -12 33 -7 8 5 -9 20 -50 44 l-63 37 47 0 c91 0 284
-31 368 -60 115 -38 247 -100 328 -153 96 -63 103 -66 221 -93 64 -14 86 -22
55 -19 -68 7 -211 45 -396 105 -84 27 -154 48 -155 46 -6 -5 230 -93 347 -130
225 -69 452 -102 650 -93 138 7 204 21 296 67 77 38 140 99 172 168 22 49 26
53 51 47 58 -15 85 -62 125 -220 48 -195 113 -563 175 -1005 17 -118 42 -264
55 -325 14 -60 36 -184 50 -275 30 -189 36 -169 -68 -222 -128 -65 -396 -139
-626 -172 -251 -36 -337 -41 -755 -41 -425 0 -536 6 -840 45 -325 42 -727 133
-898 205 l-34 14 9 63 c43 303 69 422 163 733 68 226 111 411 145 625 12 74
30 182 40 240 11 58 27 148 36 200 31 176 83 237 245 284 128 37 355 47 505
21z m3532 -2222 c-27 -2 -69 -2 -95 0 -27 2 -5 3 47 3 52 0 74 -1 48 -3z
m-205 -10 c-7 -2 -19 -2 -25 0 -7 3 -2 5 12 5 14 0 19 -2 13 -5z m-128 -28
c-83 -25 -118 -31 -75 -13 38 16 113 36 135 37 11 0 -16 -11 -60 -24z m453 14
c195 -21 455 -90 575 -151 39 -19 39 -21 35 -66 -5 -52 -76 -213 -111 -251
-51 -55 -136 -75 -672 -156 -203 -31 -566 -88 -805 -126 -653 -105 -1023 -160
-1045 -157 -11 2 25 16 80 31 326 92 631 258 904 491 273 233 504 360 702 385
94 12 227 12 337 0z m-1788 -79 c-8 -5 -19 -10 -25 -10 -5 0 -3 5 5 10 8 5 20
10 25 10 6 0 3 -5 -5 -10z m-3869 -184 c312 -53 570 -55 722 -5 l65 21 47 -32
c61 -42 213 -113 225 -105 5 3 59 -10 120 -29 60 -20 118 -36 127 -35 10 0 14
2 8 4 -5 2 -55 18 -110 35 -126 41 -207 71 -203 76 2 2 23 -4 47 -12 24 -8 45
-13 47 -11 3 2 -35 18 -83 36 -78 28 -174 74 -118 56 74 -24 159 -44 166 -39
4 2 61 -9 126 -25 261 -66 610 -125 988 -168 222 -25 771 -25 957 0 337 45
678 128 872 212 21 9 40 14 43 12 11 -11 -231 -95 -424 -147 -59 -15 -100 -29
-91 -29 26 -1 270 63 372 98 49 17 91 29 93 27 5 -5 -181 -78 -245 -97 -23 -7
-40 -14 -38 -17 3 -2 40 7 83 21 43 14 85 25 93 25 28 -2 168 63 230 106 l62
43 57 -23 c62 -25 182 -49 304 -60 42 -4 77 -10 77 -14 0 -10 -130 -113 -215
-170 -139 -94 -335 -198 -500 -265 -93 -38 -374 -99 -605 -131 -155 -21 -662
-30 -900 -15 -513 33 -1092 149 -1620 324 -74 25 -144 48 -155 52 -15 5 -16 4
-5 -3 26 -17 307 -111 485 -162 448 -130 864 -205 1275 -230 306 -19 743 -11
940 16 25 4 42 4 39 0 -3 -3 -66 -13 -140 -23 -165 -21 -775 -24 -964 -5 -758
77 -1437 264 -2176 600 -174 79 -239 111 -228 112 3 0 70 -11 150 -24z m1160
-756 l47 -11 -16 -47 c-21 -66 -20 -230 2 -311 30 -110 89 -210 148 -252 33
-24 49 -18 26 8 -33 39 -27 42 19 13 43 -27 142 -65 150 -57 1 2 -15 11 -38
21 -43 19 -100 72 -130 121 -31 50 -21 51 28 1 25 -26 60 -54 77 -63 27 -13
26 -11 -11 22 -24 20 -43 44 -43 53 1 13 6 10 21 -11 12 -15 31 -32 42 -39 21
-11 21 -10 4 9 -9 11 -14 23 -11 26 4 4 1 13 -6 22 -7 9 -10 18 -7 21 3 3 10
-3 16 -15 12 -21 52 -26 44 -4 -9 22 26 26 82 8 35 -10 66 -14 86 -10 25 6 30
4 23 -6 -4 -7 9 -3 30 9 20 12 42 22 47 22 22 0 -6 -23 -55 -46 -61 -29 -46
-32 24 -5 30 12 50 15 47 8 -2 -6 -25 -19 -53 -29 -40 -14 -42 -17 -14 -12 19
3 54 14 78 24 42 19 55 14 27 -10 -8 -7 -32 -18 -52 -25 l-38 -13 39 -8 c24
-4 52 -2 70 4 16 7 32 9 35 6 9 -8 -14 -38 -40 -52 -24 -13 -24 -14 6 -9 17 3
39 9 50 12 20 7 20 6 1 -9 -11 -9 -29 -16 -40 -16 -18 0 -19 -2 -6 -11 11 -8
6 -9 -20 -4 -26 5 -31 4 -20 -4 12 -9 10 -11 -10 -11 -20 0 -22 -2 -10 -10 8
-5 31 -7 50 -5 l35 5 -40 -16 c-26 -11 -86 -19 -175 -23 -127 -6 -131 -7 -76
-15 85 -12 222 -1 286 23 50 19 55 19 72 4 10 -8 15 -20 12 -24 -3 -5 1 -9 8
-10 7 0 -63 -21 -157 -47 -203 -55 -266 -59 -390 -19 -44 14 -72 20 -62 12 10
-7 48 -21 85 -30 37 -9 81 -20 97 -24 l30 -7 -35 -19 c-19 -10 -84 -47 -143
-83 l-109 -65 -56 9 c-66 10 -69 15 -129 182 -23 66 -47 112 -74 144 -51 61
-85 136 -97 213 -10 59 -9 61 25 108 21 29 42 47 55 47 19 0 18 2 -6 30 -40
48 -66 167 -66 301 l0 76 82 -33 c46 -18 104 -38 129 -44z m2889 26 c0 -14
-15 -28 -35 -33 -5 -1 -28 -7 -50 -12 -100 -26 -101 -2 -2 32 87 31 87 31 87
13z m-204 -165 c-3 -58 -10 -119 -16 -136 -6 -21 -7 -9 -2 40 4 39 7 102 6
142 0 45 3 70 9 66 6 -4 7 -46 3 -112z m-1943 83 c131 -10 337 -45 384 -65 41
-17 44 -21 32 -37 -12 -15 -12 -15 7 1 20 17 24 17 70 1 27 -9 82 -19 123 -23
l73 -6 19 -48 c11 -27 17 -53 13 -58 -8 -14 -34 9 -34 30 -1 9 -7 1 -16 -18
-8 -19 -12 -36 -9 -39 3 -3 5 0 5 6 0 23 30 12 31 -10 2 -79 18 -155 20 -92 0
16 4 37 8 47 6 18 7 18 23 0 9 -10 32 -54 51 -98 41 -96 80 -173 101 -200 9
-11 -3 17 -26 62 -23 46 -40 84 -37 87 2 2 54 -47 114 -110 61 -63 106 -114
99 -114 -6 0 -33 7 -60 15 -27 9 -60 18 -74 20 -14 2 -69 15 -124 29 -68 18
-124 26 -182 26 l-84 0 -2 33 -1 32 -4 -31 c-4 -30 -8 -32 -76 -49 -40 -10
-78 -20 -85 -23 -11 -4 -10 3 3 27 24 47 14 47 -15 1 -14 -23 -33 -41 -45 -42
-27 -2 -37 -4 -55 -11 -29 -12 -142 -38 -146 -34 -3 2 8 12 23 22 49 32 162
146 194 197 17 26 32 48 33 48 2 0 2 -15 1 -34 0 -18 -15 -62 -34 -97 -20 -40
-25 -55 -12 -39 11 14 35 58 53 99 55 125 92 196 103 196 5 0 14 -25 20 -55
l10 -55 3 84 c3 78 4 83 23 78 17 -4 19 -2 13 16 -3 12 -10 29 -15 37 -7 12
-8 11 -9 -5 -1 -40 -13 -46 -53 -27 -25 11 -36 22 -33 33 3 14 -8 17 -63 22
-79 6 -151 29 -303 99 -107 49 -190 97 -145 84 11 -4 51 -9 90 -12z m2147 -18
c0 -62 -30 -180 -56 -220 -14 -21 -21 -35 -16 -32 6 3 27 -13 48 -36 37 -43
37 -39 2 17 -19 29 -18 28 10 -4 42 -47 46 -72 22 -158 -25 -92 -50 -142 -96
-193 -25 -27 -49 -75 -79 -155 -52 -140 -65 -160 -106 -169 -58 -11 -74 -6
-170 50 -51 31 -116 67 -144 82 l-50 25 91 23 c83 20 134 39 134 48 0 2 -34
-7 -75 -20 -42 -13 -101 -26 -133 -29 l-57 -6 65 19 c36 10 88 31 117 45 64
33 163 124 208 192 70 105 122 273 141 453 4 34 11 65 17 69 11 7 96 31 115
32 7 1 12 -12 12 -33z m-793 -18 c-3 -7 -5 -2 -5 12 0 14 2 19 5 13 2 -7 2
-19 0 -25z m0 -130 c-3 -7 -5 -2 -5 12 0 14 2 19 5 13 2 -7 2 -19 0 -25z m560
-110 c-3 -8 -6 -5 -6 6 -1 11 2 17 5 13 3 -3 4 -12 1 -19z m-2851 -28 c-14
-17 -26 -36 -26 -42 0 -6 -3 -8 -6 -5 -4 4 5 25 20 48 15 22 30 38 33 35 3 -3
-6 -19 -21 -36z m1557 -307 c-18 -2 -48 -2 -65 0 -18 2 -4 4 32 4 36 0 50 -2
33 -4z m-130 -10 c-7 -2 -19 -2 -25 0 -7 3 -2 5 12 5 14 0 19 -2 13 -5z m272
-3 c25 -11 -1 -11 -35 0 -20 6 -21 8 -5 8 11 0 29 -3 40 -8z m-438 -36 c-3 -3
-12 -4 -19 -1 -8 3 -5 6 6 6 11 1 17 -2 13 -5z m-38 -8 c-7 -7 -131 -37 -136
-33 -2 3 22 11 54 20 59 15 90 20 82 13z m-152 -42 c-3 -3 -12 -4 -19 -1 -8 3
-5 6 6 6 11 1 17 -2 13 -5z m-40 -10 c-3 -3 -12 -4 -19 -1 -8 3 -5 6 6 6 11 1
17 -2 13 -5z m-50 -10 c-3 -3 -12 -4 -19 -1 -8 3 -5 6 6 6 11 1 17 -2 13 -5z
m-40 -10 c-3 -3 -12 -4 -19 -1 -8 3 -5 6 6 6 11 1 17 -2 13 -5z m-52 -13 c-11
-5 -36 -11 -55 -14 -35 -6 -34 -6 5 8 43 14 84 19 50 6z m333 -3 c13 -17 52
-181 52 -222 0 -42 -34 -173 -70 -263 -15 -40 -23 -70 -18 -67 14 9 51 94 93
216 37 105 51 132 66 122 13 -8 11 -74 -7 -208 -19 -132 -15 -196 27 -491 10
-77 24 -174 29 -215 l9 -75 -4 75 c-5 118 11 50 25 -100 6 -74 13 -136 13
-137 1 -1 1 102 0 228 -1 216 0 231 20 271 12 23 35 51 50 62 26 19 30 19 55
6 14 -9 37 -31 49 -49 20 -30 23 -48 26 -160 1 -69 0 -178 -1 -241 -2 -63 -1
-112 2 -109 4 3 13 89 21 190 11 145 19 199 39 254 54 152 68 331 41 535 -25
190 -2 223 52 74 60 -163 83 -221 99 -240 18 -22 21 -34 -28 106 -55 156 -60
199 -37 319 13 67 26 111 36 119 55 42 327 -46 396 -128 48 -57 51 -82 52
-425 1 -316 7 -407 27 -435 7 -11 8 -9 3 10 -22 84 -12 737 12 761 9 9 28 4
80 -24 89 -46 263 -104 341 -113 34 -3 62 -10 62 -14 0 -4 -9 -19 -20 -33 -14
-17 -16 -27 -8 -29 8 -3 1 -26 -20 -72 -18 -38 -32 -79 -32 -92 0 -29 -25 -32
-73 -8 -30 15 -29 13 10 -23 48 -43 63 -76 63 -136 0 -90 -24 -117 -35 -39 -3
26 -15 65 -26 87 -11 22 -17 31 -13 20 32 -111 26 -202 -31 -445 -18 -80 -39
-172 -45 -205 -22 -114 -64 -177 -107 -161 -24 9 -11 166 23 291 23 85 28 125
32 272 4 172 -10 382 -28 425 -9 19 -10 18 -5 -12 3 -19 10 -105 16 -192 13
-203 2 -312 -51 -473 -43 -132 -63 -239 -80 -420 -16 -160 -89 -453 -111 -439
-5 3 -10 31 -10 62 -2 48 -3 44 -10 -33 -10 -112 -33 -179 -98 -290 -28 -47
-51 -94 -51 -105 0 -15 -7 -20 -25 -20 -22 0 -25 4 -25 39 0 22 16 122 36 223
46 237 50 320 29 553 -13 145 -16 240 -11 405 4 122 2 230 -3 250 -7 26 -8 13
-4 -50 3 -53 -1 -125 -11 -191 -9 -59 -16 -149 -16 -200 0 -132 -11 -230 -24
-226 -6 2 -12 18 -14 35 -2 18 -8 32 -13 32 -6 0 -8 -20 -5 -47 3 -27 8 -100
11 -163 6 -133 -5 -191 -59 -297 -88 -178 -111 -306 -101 -582 5 -126 3 -181
-4 -177 -6 4 -13 29 -17 57 -11 83 -17 46 -15 -93 1 -138 -6 -181 -48 -287
-33 -81 -55 -108 -98 -116 -33 -6 -40 -3 -65 24 -32 36 -78 173 -110 331 -20
100 -23 143 -22 325 0 191 8 288 40 500 4 22 3 37 0 34 -11 -10 -44 -196 -60
-339 -45 -401 -45 -661 0 -1055 31 -269 40 -602 17 -640 -10 -16 -12 8 -13
131 0 194 -11 304 -60 594 -48 284 -65 421 -85 689 -9 113 -18 207 -20 210 -3
2 -5 -48 -5 -112 0 -115 -4 -147 -21 -147 -11 0 -45 113 -60 200 -17 94 -29
942 -17 1125 8 114 -5 52 -24 -111 -9 -86 -12 -247 -10 -575 2 -417 1 -469
-18 -605 -12 -82 -25 -153 -29 -157 -5 -5 -16 23 -24 62 -18 78 -56 160 -84
181 -17 14 -17 14 -2 -5 9 -11 24 -36 34 -55 l18 -35 -22 19 c-51 45 -63 81
-70 204 -6 93 -9 109 -14 77 -4 -22 -11 -58 -16 -80 l-8 -40 -12 30 c-18 42
-16 138 8 360 42 397 49 707 22 1035 -6 73 -8 55 -13 -130 -9 -316 -48 -663
-83 -747 -35 -82 -125 -10 -189 151 -58 144 -77 262 -84 496 -7 253 -18 228
-28 -65 -4 -104 -11 -198 -16 -208 -9 -18 -11 -18 -29 -1 -36 33 -60 122 -74
279 -13 138 -18 162 -69 310 -31 88 -56 174 -56 192 0 37 21 53 72 53 47 0
103 18 119 37 13 15 11 15 -18 0 -39 -20 -102 -22 -127 -4 -16 12 -17 20 -10
53 8 34 17 43 64 67 30 15 75 49 100 74 25 26 34 38 20 27 -55 -44 -66 -49
-39 -19 51 60 53 69 4 24 -57 -52 -126 -82 -176 -77 -31 3 -34 6 -51 63 -10
33 -22 69 -27 80 -23 54 -31 78 -27 82 2 2 33 6 68 9 98 6 252 49 354 99 51
25 97 45 102 45 18 0 23 -47 31 -310 8 -237 3 -411 -14 -474 -5 -18 -4 -18 4
-5 24 37 32 172 29 444 -4 391 6 426 147 491 145 67 240 89 263 62z m1111 -29
c85 -24 184 -71 310 -148 89 -54 136 -64 197 -41 43 17 41 2 -2 -16 -58 -24
-110 -14 -201 40 -43 26 -65 36 -49 22 16 -13 56 -40 90 -61 54 -32 67 -36
114 -32 58 4 70 -3 46 -27 -50 -51 -321 40 -464 156 -35 29 -92 68 -125 86
l-60 33 45 -5 c32 -4 39 -3 25 3 -34 16 -5 12 74 -10z m-1542 5 c-3 -3 -12 -4
-19 -1 -8 3 -5 6 6 6 11 1 17 -2 13 -5z m62 -37 c-30 -18 -76 -50 -104 -71
-131 -102 -460 -208 -511 -165 -14 12 -8 15 50 26 54 10 84 24 165 77 54 36
120 75 147 87 61 27 239 77 278 78 28 1 26 -2 -25 -32z m-220 -11 c-10 -9 -89
-46 -89 -41 0 6 72 44 84 45 5 0 7 -2 5 -4z m-144 -74 c-6 -5 -34 -26 -64 -47
-47 -34 -62 -39 -115 -41 l-61 -2 55 7 c40 5 73 18 120 49 62 39 86 52 65 34z
m788 -3020 c13 -80 13 -83 -4 -65 -13 14 -19 41 -23 113 -6 106 3 89 27 -48z
m171 -587 c8 -55 11 -104 6 -108 -13 -14 -31 54 -37 143 -8 117 11 95 31 -35z"/>
<path d="M3321 8620 c-1 -3 8 -46 18 -95 11 -50 22 -113 26 -142 6 -49 5 -52
-17 -55 -30 -4 -60 -65 -93 -193 -39 -151 -49 -255 -36 -374 15 -139 14 -254
-4 -329 -21 -87 -69 -207 -110 -277 -20 -32 -34 -60 -31 -62 2 -2 18 14 35 36
125 158 268 702 278 1061 4 142 2 179 -16 269 -18 87 -47 180 -50 161z"/>
<path d="M5756 8115 c1 -345 6 -399 65 -688 45 -223 102 -406 137 -445 9 -10
14 -13 11 -7 -16 25 -62 166 -79 240 -48 207 -64 411 -46 580 5 47 4 65 -3 55
-5 -8 -12 -12 -14 -10 -15 19 -50 257 -60 410 l-13 185 2 -320z"/>
<path d="M3202 8390 c0 -14 2 -19 5 -12 2 6 2 18 0 25 -3 6 -5 1 -5 -13z"/>
<path d="M3192 8300 c0 -19 2 -27 5 -17 2 9 2 25 0 35 -3 9 -5 1 -5 -18z"/>
<path d="M3182 8215 c0 -16 2 -22 5 -12 2 9 2 23 0 30 -3 6 -5 -1 -5 -18z"/>
<path d="M3318 6233 c7 -3 16 -2 19 1 4 3 -2 6 -13 5 -11 0 -14 -3 -6 -6z"/>
<path d="M5458 6233 c7 -3 16 -2 19 1 4 3 -2 6 -13 5 -11 0 -14 -3 -6 -6z"/>
<path d="M5580 6228 c-19 -6 -82 -21 -140 -33 -58 -13 -97 -24 -86 -24 22 -1
238 46 270 59 29 12 -1 10 -44 -2z"/>
<path d="M3358 6223 c7 -3 16 -2 19 1 4 3 -2 6 -13 5 -11 0 -14 -3 -6 -6z"/>
<path d="M3398 6213 c7 -3 16 -2 19 1 4 3 -2 6 -13 5 -11 0 -14 -3 -6 -6z"/>
<path d="M3438 6203 c6 -2 18 -2 25 0 6 3 1 5 -13 5 -14 0 -19 -2 -12 -5z"/>
<path d="M3488 6193 c7 -3 16 -2 19 1 4 3 -2 6 -13 5 -11 0 -14 -3 -6 -6z"/>
<path d="M5283 6163 c9 -2 25 -2 35 0 9 3 1 5 -18 5 -19 0 -27 -2 -17 -5z"/>
<path d="M5135 6149 c-33 -5 -105 -13 -160 -18 l-100 -10 110 5 c109 5 312 31
245 31 -19 0 -62 -3 -95 -8z"/>
<path d="M4733 6113 c26 -2 68 -2 95 0 26 2 4 3 -48 3 -52 0 -74 -1 -47 -3z"/>
<path d="M3133 5515 c0 -22 2 -30 4 -17 2 12 2 30 0 40 -3 9 -5 -1 -4 -23z"/>
<path d="M2990 5457 c-1 -37 47 -110 85 -129 11 -6 5 3 -13 18 -18 16 -41 52
-52 79 -10 28 -19 42 -20 32z"/>
<path d="M3020 5013 c13 -18 29 -34 36 -37 22 -9 25 10 4 29 -11 10 -20 14
-20 10 0 -4 -10 0 -22 11 -20 18 -20 17 2 -13z m41 -20 c13 -16 12 -17 -3 -4
-17 13 -22 21 -14 21 2 0 10 -8 17 -17z"/>
<path d="M3284 5021 c7 -11 46 -35 46 -28 0 3 -12 12 -26 22 -15 9 -23 12 -20
6z"/>
<path d="M3788 5023 c7 -3 16 -2 19 1 4 3 -2 6 -13 5 -11 0 -14 -3 -6 -6z"/>
<path d="M3483 4943 c9 -2 23 -2 30 0 6 3 -1 5 -18 5 -16 0 -22 -2 -12 -5z"/>
<path d="M3160 4742 c0 -6 12 -24 26 -39 l26 -28 -23 35 c-29 46 -29 45 -29
32z"/>
<path d="M3980 5550 c8 -5 20 -10 25 -10 6 0 3 5 -5 10 -8 5 -19 10 -25 10 -5
0 -3 -5 5 -10z"/>
<path d="M4211 5133 c-10 -26 -10 -27 4 -9 8 11 15 23 15 28 0 15 -7 8 -19
-19z"/>
<path d="M5982 5540 c0 -19 2 -27 5 -17 2 9 2 25 0 35 -3 9 -5 1 -5 -18z"/>
<path d="M5961 5450 c-7 -29 -27 -67 -43 -86 -17 -19 -24 -32 -17 -29 32 12
87 126 77 157 -2 5 -10 -13 -17 -42z"/>
<path d="M5916 5013 c-29 -19 -35 -27 -25 -34 14 -9 44 12 60 43 12 22 12 22
-35 -9z m14 -7 c0 -2 -8 -10 -17 -17 -16 -13 -17 -12 -4 4 13 16 21 21 21 13z"/>
<path d="M5805 4772 c-3 -11 -17 -38 -32 -58 -14 -22 -18 -32 -8 -24 19 16 59
90 52 97 -3 2 -8 -4 -12 -15z"/>
<path d="M4992 3430 c0 -14 2 -19 5 -12 2 6 2 18 0 25 -3 6 -5 1 -5 -13z"/>
</g>
</svg>
