<svg xmlns="http://www.w3.org/2000/svg" x="0px" y="0px"
width="60" height="60"
viewBox="0 0 226 226"
style=" fill:#000000;"><g fill="none" fill-rule="nonzero" stroke="none" stroke-width="1" stroke-linecap="butt" stroke-linejoin="miter" stroke-miterlimit="10" stroke-dasharray="" stroke-dashoffset="0" font-family="none" font-weight="none" font-size="none" text-anchor="none" style="mix-blend-mode: normal"><path d="M0,226v-226h226v226z" fill="none"></path><g><path d="M92.66548,32.65141c-23.30109,10.5571 -33.63214,38.00459 -23.07505,61.30568c10.5571,23.30109 38.00459,33.63214 61.30568,23.07505c23.30109,-10.5571 33.63214,-38.00459 23.07505,-61.30568c-10.5571,-23.30109 -38.00459,-33.63214 -61.30568,-23.07505z" fill="#f8f8ff"></path><path d="M111.8022,123.44346c-5.77656,0 -11.56442,-1.04412 -17.13306,-3.13914c-12.14524,-4.56972 -21.78188,-13.59616 -27.13808,-25.41596c-5.3562,-11.81754 -5.79012,-25.01594 -1.21814,-37.15892c4.56972,-12.14524 13.59616,-21.78188 25.41596,-27.13808c11.81528,-5.35846 25.01594,-5.79012 37.15892,-1.21814c12.14524,4.56972 21.78188,13.59616 27.13808,25.41596c5.3562,11.81754 5.79012,25.01594 1.21814,37.15892c-4.56972,12.14524 -13.59616,21.78188 -25.41596,27.13808c-6.3958,2.89958 -13.20292,4.35728 -20.02586,4.35728zM111.71632,30.7812c-6.07262,0 -12.2379,1.26108 -18.12068,3.92562c-22.12766,10.02762 -31.97222,36.18712 -21.94686,58.31704c10.02762,22.12766 36.18712,31.96996 58.31704,21.94686c22.12766,-10.02762 31.97222,-36.18712 21.94686,-58.31704c-7.36308,-16.24714 -23.42264,-25.87248 -40.19636,-25.87248z" fill="#000000"></path><path d="M135.83278,77.26714l0.0452,-0.08588c-2.14248,-3.80584 -5.85792,-6.60372 -10.24232,-7.58456c-0.21696,-0.04972 -0.43618,-0.09718 -0.65766,-0.13786c-0.32318,-0.05876 -0.64636,-0.11074 -0.97632,-0.14916c-0.49268,-0.05876 -0.9944,-0.09266 -1.50064,-0.10396c-0.0904,-0.00226 -0.17402,-0.01808 -0.26442,-0.01808h-0.09492h-18.44838h-0.09492c-8.55184,0 -15.54654,6.99696 -15.54654,15.54654v2.80692c0,2.70296 0.70512,5.24772 1.93908,7.4693l-0.0452,0.08588c2.14022,3.80584 5.85792,6.60372 10.24232,7.58456c0.21922,0.04972 0.43618,0.09718 0.65766,0.13786c0.32318,0.05876 0.64636,0.11074 0.97406,0.14916c0.49268,0.05876 0.9944,0.09266 1.50064,0.10396c0.08814,0.00226 0.17402,0.01808 0.26442,0.01808h0.09492h18.44838h0.09718c8.55184,0 15.54654,-6.99696 15.54654,-15.54654v-2.80692c0,-2.70522 -0.70738,-5.24998 -1.93908,-7.4693z" fill="#f8f8ff"></path><path d="M130.0404,114.38764h-41.1885c0,0 -2.90862,1.921 -2.90862,4.28948c0,2.36848 1.92778,4.7686 4.28948,4.75052h9.1191v28.5664l4.48158,3.6612l-4.2149,3.74256l4.82284,5.55734l-4.82962,4.28722l4.44316,4.97878l-4.44994,4.86578l4.17422,3.71544l-2.16734,3.73578l-0.00226,4.068l9.82648,13.53288l10.51578,-13.30688l0.19436,-67.4045l6.72802,0.00452c2.32102,0.00226 4.53582,-1.49386 4.99912,-3.76968c0.56726,-2.78206 -1.3786,-5.27258 -3.83296,-5.27484z" fill="#f8f8ff"></path><path d="M111.43608,206.39902c-0.01582,0 -0.03164,0 -0.04746,0c-0.70738,-0.01356 -1.3673,-0.35934 -1.78314,-0.93338l-9.82648,-13.53288c-0.28024,-0.38646 -0.43166,-0.84976 -0.43166,-1.32888l0.00226,-4.068c0,-0.39776 0.10622,-0.78874 0.3051,-1.13226l1.24074,-2.14022l-2.79788,-2.49052c-0.452,-0.40228 -0.7232,-0.96954 -0.75258,-1.57296c-0.02938,-0.60342 0.1808,-1.19554 0.58986,-1.64076l3.0736,-3.36062l-3.0849,-3.45328c-0.40002,-0.44748 -0.60568,-1.03508 -0.56952,-1.63624c0.03616,-0.5989 0.30736,-1.16164 0.7571,-1.5594l3.15722,-2.8024l-3.35836,-3.86912c-0.81134,-0.93564 -0.71868,-2.3504 0.20566,-3.17078l2.23062,-1.97976l-2.42724,-1.98202c-0.52432,-0.4294 -0.82942,-1.07124 -0.82942,-1.74924v-26.3064h-6.8591c-1.57748,0.01582 -3.14818,-0.65314 -4.37536,-1.87128c-1.36278,-1.35148 -2.17412,-3.27248 -2.17412,-5.13924c0.00226,-3.48266 3.52108,-5.90764 3.92336,-6.17432c0.37064,-0.24408 0.8023,-0.37516 1.24526,-0.37516h41.19076c0,0 0,0 0.00226,0c1.79444,0 3.50074,0.83168 4.68046,2.27582c1.28594,1.57522 1.78314,3.65894 1.36504,5.71102c-0.65766,3.2318 -3.69058,5.57768 -7.21166,5.57768h-0.00226l-4.4748,-0.00226l-0.18758,65.14902c0,0.50624 -0.17402,0.99666 -0.4859,1.39442l-10.51578,13.30688c-0.4294,0.54014 -1.0848,0.85654 -1.7741,0.85654zM103.8696,189.87164l7.64332,10.52482l8.1812,-10.35306l0.1921,-66.62254c0.00226,-1.24526 1.01474,-2.25322 2.26,-2.25322c0,0 0,0 0.00226,0l6.72802,0.00452v0c1.35826,0 2.5538,-0.84298 2.78206,-1.95942c0.1469,-0.72094 -0.0113,-1.43284 -0.43618,-1.95264c-0.18758,-0.23052 -0.58986,-0.61246 -1.18198,-0.61246h-40.42914c-0.68478,0.58534 -1.41024,1.44866 -1.41024,2.03174c0,0.67574 0.32092,1.41476 0.83846,1.93004c0.21244,0.21244 0.70512,0.61924 1.17294,0.56048h9.13718c1.24752,0 2.26,1.01248 2.26,2.26v27.4929l3.65216,2.9832c0.51302,0.42036 0.81586,1.04186 0.82942,1.70404c0.01356,0.66218 -0.26442,1.29724 -0.75936,1.73794l-2.54476,2.25774l3.35836,3.87138c0.81134,0.93564 0.71868,2.3504 -0.20792,3.17078l-3.13462,2.7798l2.93574,3.2883c0.77292,0.86558 0.76388,2.17412 -0.01808,3.03066l-2.90636,3.1753l2.4634,2.1922c0.80004,0.71416 0.98988,1.89388 0.452,2.82274l-1.86224,3.2092z" fill="#000000"></path><path d="M122.48974,56.9972l-23.6509,-0.01582c-3.1075,-0.00226 -5.64774,-2.54702 -5.64548,-5.65452v-0.08814c0.00226,-3.1075 2.54702,-5.64774 5.65452,-5.64548l23.6509,0.01582c3.1075,0.00226 5.64774,2.54702 5.64548,5.65452v0.08814c-0.00226,3.1075 -2.54702,5.64774 -5.65452,5.64548z" fill="#f8f8ff"></path><path d="M122.49426,58.1272c-0.00226,0 -0.00226,0 -0.00452,0l-23.6509,-0.01582c-1.80348,0 -3.50526,-0.70964 -4.78894,-1.99332c-1.28142,-1.28368 -1.9888,-2.98546 -1.98654,-4.7912c0.00226,-3.82392 3.04422,-6.86362 6.78,-6.86362c0.00226,0 0.00226,0 0.00452,0l23.6509,0.01582c1.80348,0 3.50526,0.70964 4.78668,1.99332c1.28368,1.28368 1.9888,2.98546 1.98654,4.7912c0,1.89162 -0.70964,3.59114 -1.99332,4.87482c-1.28142,1.28368 -2.98094,1.9888 -4.78442,1.9888zM98.84336,46.72324c-2.49052,0 -4.51774,2.02496 -4.52,4.51774c-0.00226,2.57866 2.02496,4.60814 4.51774,4.6104l23.6509,0.01582h0.00226c2.49052,0 4.51774,-2.02496 4.52,-4.51774c0.00226,-2.57866 -2.02496,-4.60814 -4.51774,-4.6104l-23.6509,-0.01582c0,0 0,0 -0.00226,0z" fill="#000000"></path><path d="M109.87894,51.9913c-0.36612,0 -0.73224,-0.0113 -1.10062,-0.03616c-9.38352,-0.60116 -16.5206,-8.86372 -15.9104,-18.42126c0.61246,-9.55754 8.71908,-16.86638 18.12746,-16.24488c7.71112,0.49268 14.1363,6.22178 15.62564,13.93064c0.11978,0.61246 -0.2825,1.20458 -0.89496,1.3221c-0.61472,0.11752 -1.20684,-0.2825 -1.3221,-0.89496c-1.29498,-6.69864 -6.86814,-11.67516 -13.55096,-12.1023c-8.16312,-0.51076 -15.19624,5.8195 -15.72734,14.13178c-0.5311,8.31454 5.65678,15.50134 13.7973,16.0234c4.09512,0.25764 8.00266,-1.16616 11.01298,-4.01602c0.45426,-0.4294 1.16842,-0.41132 1.59782,0.04294c0.4294,0.452 0.41132,1.16842 -0.04294,1.59782c-3.20242,3.03292 -7.29076,4.6669 -11.61188,4.6669zM114.04186,184.44764c-0.62376,0 -1.13,-0.50624 -1.13,-1.13v-4.52c0,-0.62376 0.50624,-1.13 1.13,-1.13c0.62376,0 1.13,0.50624 1.13,1.13v4.52c0,0.62602 -0.50624,1.13 -1.13,1.13zM114.04186,170.88764c-0.62376,0 -1.13,-0.50624 -1.13,-1.13v-6.78c0,-0.62376 0.50624,-1.13 1.13,-1.13c0.62376,0 1.13,0.50624 1.13,1.13v6.78c0,0.62602 -0.50624,1.13 -1.13,1.13zM114.04186,155.06764c-0.62376,0 -1.13,-0.50624 -1.13,-1.13v-29.38c0,-0.62376 0.50624,-1.13 1.13,-1.13c0.62376,0 1.13,0.50624 1.13,1.13v29.38c0,0.62602 -0.50624,1.13 -1.13,1.13z" fill="#000000"></path><path d="M136.64186,83.87764v2.5538c0,2.86342 -0.78422,5.55282 -2.14926,7.86254" fill="#ffffff"></path><path d="M134.49034,95.42398c-0.19436,0 -0.39324,-0.04972 -0.57404,-0.15594c-0.53788,-0.31866 -0.71416,-1.01022 -0.39776,-1.5481c1.30402,-2.20576 1.99106,-4.72566 1.99106,-7.28624v-2.5538c0,-0.62376 0.50624,-1.13 1.13,-1.13c0.62376,0 1.13,0.50624 1.13,1.13v2.5538c0,2.96512 -0.79778,5.88278 -2.3052,8.43658c-0.21018,0.35482 -0.5876,0.5537 -0.97406,0.5537zM120.82186,103.08764h-18.35346c-9.19594,0 -16.67654,-7.48286 -16.67654,-16.67654v-2.80466c0,-9.19594 7.48286,-16.67654 16.67654,-16.67654h18.4642c6.01838,0 11.59606,3.28378 14.55666,8.56992c0.3051,0.54466 0.11074,1.2317 -0.43392,1.53906c-0.5424,0.3051 -1.23396,0.10848 -1.53906,-0.43392c-2.56058,-4.57198 -7.38116,-7.41506 -12.58368,-7.41506h-18.4642c-7.95068,0 -14.41654,6.46812 -14.41654,14.41654v2.80466c0,7.95068 6.46812,14.41654 14.41654,14.41654h18.35346c0.62376,0 1.13,0.50624 1.13,1.13c0,0.62376 -0.50624,1.13 -1.13,1.13z" fill="#000000"></path></g></g></svg>