<svg xmlns="http://www.w3.org/2000/svg" x="0px" y="0px"
width="50" height="50"
viewBox="0 0 226 226"
style=" fill:#000000;"><g fill="none" fill-rule="nonzero" stroke="none" stroke-width="1" stroke-linecap="butt" stroke-linejoin="miter" stroke-miterlimit="10" stroke-dasharray="" stroke-dashoffset="0" font-family="none" font-weight="none" font-size="none" text-anchor="none" style="mix-blend-mode: normal"><path d="M0,226v-226h226v226z" fill="none"></path><g><path d="M164.98,90.4v-38.42c0,-7.48964 -6.07036,-13.56 -13.56,-13.56h-88.14c-7.48964,0 -13.56,6.07036 -13.56,13.56v122.04c0,7.48964 6.07036,13.56 13.56,13.56h88.14c7.48964,0 13.56,-6.07036 13.56,-13.56v-38.42h2.26v-45.2z" fill="#A8E4A0"></path><path d="M151.42,189.84h-88.14c-8.7236,0 -15.82,-7.09866 -15.82,-15.82v-122.04c0,-8.72134 7.0964,-15.82 15.82,-15.82h88.14c8.7236,0 15.82,7.09866 15.82,15.82v38.42c0,1.24978 -1.01248,2.26 -2.26,2.26c-1.24752,0 -2.26,-1.01022 -2.26,-2.26v-38.42c0,-6.23082 -5.06918,-11.3 -11.3,-11.3h-88.14c-6.23082,0 -11.3,5.06918 -11.3,11.3v122.04c0,6.23082 5.06918,11.3 11.3,11.3h88.14c6.23082,0 11.3,-5.06918 11.3,-11.3v-38.42c0,-1.24978 1.01248,-2.26 2.26,-2.26c1.24752,0 2.26,1.01022 2.26,2.26v38.42c0,8.72134 -7.0964,15.82 -15.82,15.82z" fill="#000000"></path><path d="M194.36,122.04h-76.84l13.56,13.56l-11.3,11.3l-33.9,-33.9l33.9,-33.9l11.3,11.3l-13.56,13.56h76.84z" fill="#A8E4A0"></path><path d="M119.78,149.16c-0.57856,0 -1.15712,-0.22148 -1.59782,-0.66218l-33.9,-33.9c-0.88366,-0.88366 -0.88366,-2.31198 0,-3.19564l33.9,-33.9c0.88366,-0.88366 2.31198,-0.88366 3.19564,0l11.3,11.3c0.88366,0.88366 0.88366,2.31198 0,3.19564l-9.70218,9.70218h71.38436c1.24752,0 2.26,1.01022 2.26,2.26v18.08c0,1.24978 -1.01248,2.26 -2.26,2.26h-71.38436l9.70218,9.70218c0.88366,0.88366 0.88366,2.31198 0,3.19564l-11.3,11.3c-0.4407,0.4407 -1.01926,0.66218 -1.59782,0.66218zM89.07564,113l30.70436,30.70436l8.10436,-8.10436l-11.96218,-11.96218c-0.64636,-0.64636 -0.84072,-1.61816 -0.49042,-2.4634c0.3503,-0.84524 1.1752,-1.39442 2.08824,-1.39442h74.58v-13.56h-74.58c-0.91304,0 -1.73794,-0.54918 -2.08824,-1.39442c-0.3503,-0.84524 -0.15594,-1.81704 0.49042,-2.4634l11.96218,-11.96218l-8.10436,-8.10436z" fill="#000000"></path><path d="M152.55,92.66c-0.62376,0 -1.13,-0.50624 -1.13,-1.13v-9.04c0,-0.62376 0.50624,-1.13 1.13,-1.13c0.62376,0 1.13,0.50624 1.13,1.13v9.04c0,0.62376 -0.50624,1.13 -1.13,1.13z" fill="#000000"></path><path d="M143.51,176.28h-72.32c-5.60706,0 -10.17,-4.56294 -10.17,-10.17v-106.22c0,-5.60706 4.56294,-10.17 10.17,-10.17h49.72c0.62376,0 1.13,0.50624 1.13,1.13c0,0.62376 -0.50624,1.13 -1.13,1.13h-49.72c-4.3618,0 -7.91,3.5482 -7.91,7.91v106.22c0,4.3618 3.5482,7.91 7.91,7.91h72.32c4.3618,0 7.91,-3.5482 7.91,-7.91v-31.64c0,-0.62376 0.50624,-1.13 1.13,-1.13c0.62376,0 1.13,0.50624 1.13,1.13v31.64c0,5.60706 -4.56294,10.17 -10.17,10.17z" fill="#000000"></path><path d="M152.55,79.1c-0.62376,0 -1.13,-0.50624 -1.13,-1.13v-2.26c0,-0.62376 0.50624,-1.13 1.13,-1.13c0.62376,0 1.13,0.50624 1.13,1.13v2.26c0,0.62376 -0.50624,1.13 -1.13,1.13z" fill="#000000"></path></g></g></svg>