<svg xmlns="http://www.w3.org/2000/svg" x="0px" y="0px"
width="45" height="45"
viewBox="0 0 172 172"
style=" fill:#000000;"><g fill="none" fill-rule="nonzero" stroke="none" stroke-width="1" stroke-linecap="butt" stroke-linejoin="miter" stroke-miterlimit="10" stroke-dasharray="" stroke-dashoffset="0" font-family="none" font-weight="none" font-size="none" text-anchor="none" style="mix-blend-mode: normal"><path d="M0,172v-172h172v172z" fill="none"></path><g><path d="M140.27288,86c-2.39768,0 -5.1514,0 -9.78164,3.11492c-10.4318,7.0176 -22.13124,15.80508 -22.13124,15.80508v-55.9c0,-5.22536 -4.23464,-9.46 -9.46,-9.46c-5.22536,0 -9.46,4.23464 -9.46,9.46c0,0 0,2.64536 0,3.44c0,-5.22536 -4.23464,-9.46 -9.46,-9.46c-5.22536,0 -9.46,4.23464 -9.46,9.46c0,0 0,2.64536 0,3.44c0,-5.22536 -4.23464,-9.46 -9.46,-9.46c-5.22536,0 -9.46,4.23464 -9.46,9.46c0,-8.49336 0,-26.96616 0,-30.96c0,-5.22536 -4.23464,-9.46 -9.46,-9.46c-5.22536,0 -9.46,4.23464 -9.46,9.46c0,3.09256 0,104.06 0,104.06c0,7.59896 6.16104,13.76 13.76,13.76v13.76h55.04v-13.76c8.6,0 14.98292,-8.30932 22.1536,-16.09404c5.58656,-6.06816 17.97228,-21.6634 24.0112,-28.78248c0.2838,-0.33196 1.9952,-2.34436 1.9952,-3.36948c0,-4.73 -4.68356,-8.514 -9.36712,-8.514z" fill="#f8f8ff"></path><path d="M101.48,158.24c-0.94944,0 -1.72,-0.77056 -1.72,-1.72v-13.76c0,-0.94944 0.77056,-1.72 1.72,-1.72c6.8456,0 12.47172,-6.23328 18.42636,-12.82948c0.81356,-0.90128 1.63228,-1.80772 2.46132,-2.709c3.47784,-3.77712 9.74208,-11.438 15.26844,-18.1976c3.31444,-4.0506 6.44312,-7.87932 8.6946,-10.53328c1.19024,-1.4018 1.55488,-2.17752 1.59616,-2.35984c-0.00688,-3.78572 -4.04372,-6.6908 -7.654,-6.6908c-2.27384,0 -4.62508,0 -8.82188,2.8208c-10.27356,6.91268 -21.94204,15.66576 -22.059,15.75348c-0.52288,0.39216 -1.2212,0.4558 -1.80084,0.1634c-0.58308,-0.29068 -0.95116,-0.8858 -0.95116,-1.53768v-30.1c0,-0.94944 0.77056,-1.72 1.72,-1.72c0.94944,0 1.72,0.77056 1.72,1.72v26.67892c4.1022,-3.03064 12.12428,-8.8838 19.45148,-13.8116c5.0654,-3.40732 8.213,-3.40732 10.7414,-3.40732c5.90648,0 11.08712,4.7816 11.08712,10.234c0,0.45236 0,1.64948 -2.3994,4.47716c-2.236,2.63676 -5.3578,6.45172 -8.6602,10.492c-5.55732,6.79572 -11.85596,14.49616 -15.4026,18.34896c-0.82216,0.89268 -1.63228,1.79052 -2.43724,2.6832c-6.03032,6.6822 -11.75104,13.01868 -19.26056,13.86836v12.13632c0,0.94944 -0.77056,1.72 -1.72,1.72z" fill="#000000"></path><path d="M46.44,158.24c-0.94944,0 -1.72,-0.77056 -1.72,-1.72v-12.1346c-7.72968,-0.85828 -13.76,-7.4304 -13.76,-15.3854v-104.06c0,-6.16448 5.01552,-11.18 11.18,-11.18c6.16448,0 11.18,5.01552 11.18,11.18v35.26c0,0.94944 -0.77056,1.72 -1.72,1.72c-0.94944,0 -1.72,-0.77056 -1.72,-1.72v-35.26c0,-4.26732 -3.47268,-7.74 -7.74,-7.74c-4.26732,0 -7.74,3.47268 -7.74,7.74v104.06c0,6.6392 5.4008,12.04 12.04,12.04c0.94944,0 1.72,0.77056 1.72,1.72v13.76c0,0.94944 -0.77056,1.72 -1.72,1.72z" fill="#000000"></path><path d="M73.1,142.76h-27.52c-0.47472,0 -0.86,-0.38528 -0.86,-0.86c0,-0.47472 0.38528,-0.86 0.86,-0.86h27.52c0.47472,0 0.86,0.38528 0.86,0.86c0,0.47472 -0.38528,0.86 -0.86,0.86z" fill="#000000"></path><path d="M81.7,142.76h-3.44c-0.47472,0 -0.86,-0.38528 -0.86,-0.86c0,-0.47472 0.38528,-0.86 0.86,-0.86h3.44c0.47472,0 0.86,0.38528 0.86,0.86c0,0.47472 -0.38528,0.86 -0.86,0.86z" fill="#000000"></path><path d="M61.06,103.2h-10.32c-0.47472,0 -0.86,-0.38528 -0.86,-0.86c0,-0.47472 0.38528,-0.86 0.86,-0.86h10.32c0.47472,0 0.86,0.38528 0.86,0.86c0,0.47472 -0.38528,0.86 -0.86,0.86z" fill="#000000"></path><path d="M67.94,103.2h-1.72c-0.47472,0 -0.86,-0.38528 -0.86,-0.86c0,-0.47472 0.38528,-0.86 0.86,-0.86h1.72c0.47472,0 0.86,0.38528 0.86,0.86c0,0.47472 -0.38528,0.86 -0.86,0.86z" fill="#000000"></path><path d="M78.26,129c-0.35604,0 -0.68628,-0.22188 -0.81184,-0.57448c-0.05332,-0.15136 -5.55388,-15.13256 -26.83888,-18.35412c-0.46956,-0.07052 -0.79292,-0.50912 -0.72068,-0.97868c0.07052,-0.46956 0.50912,-0.79292 0.97868,-0.72068c22.35656,3.38324 28.14952,19.32592 28.20456,19.4876c0.15652,0.44892 -0.08084,0.9374 -0.52804,1.09392c-0.0946,0.03096 -0.1892,0.04644 -0.2838,0.04644z" fill="#000000"></path><path d="M45.58,53.32h-6.88c-0.47472,0 -0.86,-0.38528 -0.86,-0.86c0,-0.47472 0.38528,-0.86 0.86,-0.86h6.88c0.47472,0 0.86,0.38528 0.86,0.86c0,0.47472 -0.38528,0.86 -0.86,0.86z" fill="#000000"></path><path d="M61.06,92.88c-6.16448,0 -11.18,-5.01552 -11.18,-11.18v-25.8c0,-6.16448 5.01552,-11.18 11.18,-11.18c6.16448,0 11.18,5.01552 11.18,11.18v25.8c0,6.16448 -5.01552,11.18 -11.18,11.18zM61.06,48.16c-4.26732,0 -7.74,3.47268 -7.74,7.74v25.8c0,4.26732 3.47268,7.74 7.74,7.74c4.26732,0 7.74,-3.47268 7.74,-7.74v-25.8c0,-4.26732 -3.47268,-7.74 -7.74,-7.74z" fill="#000000"></path><path d="M79.98,89.44c-6.16448,0 -11.18,-5.01552 -11.18,-11.18v-25.8c0,-6.16448 5.01552,-11.18 11.18,-11.18c6.16448,0 11.18,5.01552 11.18,11.18v25.8c0,6.16448 -5.01552,11.18 -11.18,11.18zM79.98,44.72c-4.26732,0 -7.74,3.47268 -7.74,7.74v25.8c0,4.26732 3.47268,7.74 7.74,7.74c4.26732,0 7.74,-3.47268 7.74,-7.74v-25.8c0,-4.26732 -3.47268,-7.74 -7.74,-7.74z" fill="#000000"></path><path d="M98.9,86c-6.16448,0 -11.18,-5.01552 -11.18,-11.18v-25.8c0,-6.16448 5.01552,-11.18 11.18,-11.18c6.16448,0 11.18,5.01552 11.18,11.18v25.8c0,6.16448 -5.01552,11.18 -11.18,11.18zM98.9,41.28c-4.26732,0 -7.74,3.47268 -7.74,7.74v25.8c0,4.26732 3.47268,7.74 7.74,7.74c4.26732,0 7.74,-3.47268 7.74,-7.74v-25.8c0,-4.26732 -3.47268,-7.74 -7.74,-7.74z" fill="#000000"></path></g></g></svg>