<svg xmlns="http://www.w3.org/2000/svg" x="0px" y="0px"
width="45" height="45"
viewBox="0 0 226 226"
style=" fill:#000000;"><g fill="none" fill-rule="nonzero" stroke="none" stroke-width="1" stroke-linecap="butt" stroke-linejoin="miter" stroke-miterlimit="10" stroke-dasharray="" stroke-dashoffset="0" font-family="none" font-weight="none" font-size="none" text-anchor="none" style="mix-blend-mode: normal"><path d="M0,226v-226h226v226z" fill="none"></path><g><path d="M184.31204,113c-3.15044,0 -6.7687,0 -12.85262,4.09286c-13.7069,9.2208 -29.07942,20.76714 -29.07942,20.76714v-73.45c0,-6.86588 -5.56412,-12.43 -12.43,-12.43c-6.86588,0 -12.43,5.56412 -12.43,12.43c0,0 0,3.47588 0,4.52c0,-6.86588 -5.56412,-12.43 -12.43,-12.43c-6.86588,0 -12.43,5.56412 -12.43,12.43c0,0 0,3.47588 0,4.52c0,-6.86588 -5.56412,-12.43 -12.43,-12.43c-6.86588,0 -12.43,5.56412 -12.43,12.43c0,-11.15988 0,-35.43228 0,-40.68c0,-6.86588 -5.56412,-12.43 -12.43,-12.43c-6.86588,0 -12.43,5.56412 -12.43,12.43c0,4.06348 0,136.73 0,136.73c0,9.98468 8.09532,18.08 18.08,18.08v18.08h72.32v-18.08c11.3,0 19.68686,-10.91806 29.1088,-21.14682c7.34048,-7.97328 23.61474,-28.4647 31.5496,-37.81884c0.3729,-0.43618 2.6216,-3.08038 2.6216,-4.42734c0,-6.215 -6.15398,-11.187 -12.30796,-11.187z" fill="#a8e4a0"></path><path d="M133.34,207.92c-1.24752,0 -2.26,-1.01248 -2.26,-2.26v-18.08c0,-1.24752 1.01248,-2.26 2.26,-2.26c8.9948,0 16.38726,-8.19024 24.21138,-16.85734c1.06898,-1.18424 2.14474,-2.37526 3.23406,-3.5595c4.56972,-4.96296 12.80064,-15.029 20.06202,-23.9108c4.35502,-5.3223 8.46596,-10.35306 11.4243,-13.84024c1.56392,-1.8419 2.04304,-2.86116 2.09728,-3.10072c-0.00904,-4.97426 -5.31326,-8.7914 -10.057,-8.7914c-2.98772,0 -6.07714,0 -11.59154,3.7064c-13.49898,9.08294 -28.83082,20.58408 -28.9845,20.69934c-0.68704,0.51528 -1.6046,0.5989 -2.36622,0.2147c-0.76614,-0.38194 -1.24978,-1.1639 -1.24978,-2.02044v-39.55c0,-1.24752 1.01248,-2.26 2.26,-2.26c1.24752,0 2.26,1.01248 2.26,2.26v35.05486c5.3901,-3.98212 15.93074,-11.6729 25.55834,-18.1478c6.6557,-4.47706 10.7915,-4.47706 14.1137,-4.47706c7.76084,0 14.56796,6.2828 14.56796,13.447c0,0.59438 0,2.16734 -3.1527,5.88278c-2.938,3.46458 -7.0399,8.47726 -11.3791,13.786c-7.30206,8.92926 -15.57818,19.04728 -20.2383,24.10968c-1.08028,1.17294 -2.14474,2.35266 -3.20242,3.5256c-7.92356,8.7801 -15.44032,17.10594 -25.30748,18.22238v15.94656c0,1.24752 -1.01248,2.26 -2.26,2.26z" fill="#000000"></path><path d="M61.02,207.92c-1.24752,0 -2.26,-1.01248 -2.26,-2.26v-15.9443c-10.15644,-1.12774 -18.08,-9.7632 -18.08,-20.2157v-136.73c0,-8.09984 6.59016,-14.69 14.69,-14.69c8.09984,0 14.69,6.59016 14.69,14.69v46.33c0,1.24752 -1.01248,2.26 -2.26,2.26c-1.24752,0 -2.26,-1.01248 -2.26,-2.26v-46.33c0,-5.60706 -4.56294,-10.17 -10.17,-10.17c-5.60706,0 -10.17,4.56294 -10.17,10.17v136.73c0,8.7236 7.0964,15.82 15.82,15.82c1.24752,0 2.26,1.01248 2.26,2.26v18.08c0,1.24752 -1.01248,2.26 -2.26,2.26z" fill="#000000"></path><path d="M96.05,187.58h-36.16c-0.62376,0 -1.13,-0.50624 -1.13,-1.13c0,-0.62376 0.50624,-1.13 1.13,-1.13h36.16c0.62376,0 1.13,0.50624 1.13,1.13c0,0.62376 -0.50624,1.13 -1.13,1.13z" fill="#000000"></path><path d="M107.35,187.58h-4.52c-0.62376,0 -1.13,-0.50624 -1.13,-1.13c0,-0.62376 0.50624,-1.13 1.13,-1.13h4.52c0.62376,0 1.13,0.50624 1.13,1.13c0,0.62376 -0.50624,1.13 -1.13,1.13z" fill="#000000"></path><path d="M80.23,135.6h-13.56c-0.62376,0 -1.13,-0.50624 -1.13,-1.13c0,-0.62376 0.50624,-1.13 1.13,-1.13h13.56c0.62376,0 1.13,0.50624 1.13,1.13c0,0.62376 -0.50624,1.13 -1.13,1.13z" fill="#000000"></path><path d="M89.27,135.6h-2.26c-0.62376,0 -1.13,-0.50624 -1.13,-1.13c0,-0.62376 0.50624,-1.13 1.13,-1.13h2.26c0.62376,0 1.13,0.50624 1.13,1.13c0,0.62376 -0.50624,1.13 -1.13,1.13z" fill="#000000"></path><path d="M102.83,169.5c-0.46782,0 -0.90174,-0.29154 -1.06672,-0.75484c-0.07006,-0.19888 -7.29754,-19.88348 -35.26504,-24.11646c-0.61698,-0.09266 -1.04186,-0.66896 -0.94694,-1.28594c0.09266,-0.61698 0.66896,-1.04186 1.28594,-0.94694c29.37548,4.44542 36.98716,25.39336 37.05948,25.6058c0.20566,0.58986 -0.10622,1.2317 -0.69382,1.43736c-0.1243,0.04068 -0.2486,0.06102 -0.3729,0.06102z" fill="#000000"></path><path d="M59.89,70.06h-9.04c-0.62376,0 -1.13,-0.50624 -1.13,-1.13c0,-0.62376 0.50624,-1.13 1.13,-1.13h9.04c0.62376,0 1.13,0.50624 1.13,1.13c0,0.62376 -0.50624,1.13 -1.13,1.13z" fill="#000000"></path><path d="M80.23,122.04c-8.09984,0 -14.69,-6.59016 -14.69,-14.69v-33.9c0,-8.09984 6.59016,-14.69 14.69,-14.69c8.09984,0 14.69,6.59016 14.69,14.69v33.9c0,8.09984 -6.59016,14.69 -14.69,14.69zM80.23,63.28c-5.60706,0 -10.17,4.56294 -10.17,10.17v33.9c0,5.60706 4.56294,10.17 10.17,10.17c5.60706,0 10.17,-4.56294 10.17,-10.17v-33.9c0,-5.60706 -4.56294,-10.17 -10.17,-10.17z" fill="#000000"></path><path d="M105.09,117.52c-8.09984,0 -14.69,-6.59016 -14.69,-14.69v-33.9c0,-8.09984 6.59016,-14.69 14.69,-14.69c8.09984,0 14.69,6.59016 14.69,14.69v33.9c0,8.09984 -6.59016,14.69 -14.69,14.69zM105.09,58.76c-5.60706,0 -10.17,4.56294 -10.17,10.17v33.9c0,5.60706 4.56294,10.17 10.17,10.17c5.60706,0 10.17,-4.56294 10.17,-10.17v-33.9c0,-5.60706 -4.56294,-10.17 -10.17,-10.17z" fill="#000000"></path><path d="M129.95,113c-8.09984,0 -14.69,-6.59016 -14.69,-14.69v-33.9c0,-8.09984 6.59016,-14.69 14.69,-14.69c8.09984,0 14.69,6.59016 14.69,14.69v33.9c0,8.09984 -6.59016,14.69 -14.69,14.69zM129.95,54.24c-5.60706,0 -10.17,4.56294 -10.17,10.17v33.9c0,5.60706 4.56294,10.17 10.17,10.17c5.60706,0 10.17,-4.56294 10.17,-10.17v-33.9c0,-5.60706 -4.56294,-10.17 -10.17,-10.17z" fill="#000000"></path></g></g></svg>